# xmcd
#
# Track frame offsets:
#	182
#	12967
#	29497
#	48415
#	62772
#	76222
#	90960
#	104515
#	118995
#	129890
#
# Disc length: 1974 seconds
# Revision: 9
# Processed by: cddbd v1.5.2PL0 Copyright (c) Steve Scherf et al.
# Submitted via: dBpowerAMP V12.0
#
DISCID=7907b40a
DTITLE=Randy Travis - Old 8 X 10
DYEAR=1988
DGENRE=Country
TTITLE0=Honky Tonk Moon
TTITLE1=Deeper Than The Holler
TTITLE2=It's Out Of My Hands
TTITLE3=Is It Still Over?
TTITLE4=Old 8 X 10
TTITLE5=Written In Stone
TTITLE6=The Blues In Black And White
TTITLE7=Here In My Heart
TTITLE8=We Ain't Out Of Love Yet
TTITLE9=Promises
EXTD=
EXTT0=
EXTT1=
EXTT2=
EXTT3=
EXTT4=
EXTT5=
EXTT6=
EXTT7=
EXTT8=
EXTT9=
PLAYORDER=
